<?xml version="1.0" encoding="utf-8"?>
<!-- Generator: Adobe Illustrator 22.0.0, SVG Export Plug-In . SVG Version: 6.00 Build 0)  -->
<svg version="1.1" id="Layer_1" xmlns="http://www.w3.org/2000/svg" xmlns:xlink="http://www.w3.org/1999/xlink" x="0px" y="0px"
	 viewBox="0 0 32 32" style="enable-background:new 0 0 32 32;" xml:space="preserve">
<style type="text/css">
	.st0{fill:#0A84FF;}
</style>
<path class="st0" d="M31.3,0H0.7C0.3,0,0,0.3,0,0.7v30.6C0,31.7,0.3,32,0.7,32h30.6c0.4,0,0.7-0.3,0.7-0.7V0.7C32,0.3,31.7,0,31.3,0
	z M4.2,16.1c0.3-4.7,3.2-8.7,7.2-10.6L11.8,7C8.4,8.7,6,12.1,5.7,16.1H4.2z M7.1,16.1c0.3-3.3,2.4-6.2,5.3-7.7l0.5,1.5
	c-2.2,1.2-3.9,3.5-4.2,6.2H7.1z M16,26.6c-1.2,0-2.3-1-2.3-2.3h4.5C18.3,25.6,17.2,26.6,16,26.6z M23.4,23.4H8.6V22l1.8-1.7v-3.9
	c0-2.7,1.9-4.9,4.5-5.4v-0.5c0-0.6,0.5-1.1,1.1-1.1l0,0c0.6,0,1.1,0.5,1.1,1.1V11c2.5,0.5,4.5,2.7,4.5,5.4v3.9l1.8,1.7V23.4z
	 M23.4,16.1c-0.3-2.7-1.9-4.9-4.2-6.2l0.5-1.5c2.9,1.5,4.9,4.3,5.3,7.7H23.4z M26.3,16.1c-0.3-4-2.7-7.4-6.1-9.1l0.5-1.5
	c4,1.9,6.9,5.9,7.2,10.6H26.3z"/>
</svg>
