<?xml version="1.0" encoding="utf-8"?>
<!-- Generator: Adobe Illustrator 22.0.0, SVG Export Plug-In . SVG Version: 6.00 Build 0)  -->
<svg version="1.1" id="Layer_1" xmlns="http://www.w3.org/2000/svg" xmlns:xlink="http://www.w3.org/1999/xlink" x="0px" y="0px"
	 viewBox="0 0 32 32" height="48px" width="48px" xml:space="preserve">
<style type="text/css">
	.st0{fill:#0A84FF;}
</style>
<g>
	<g>
		<path class="st0" d="M23.6,16.5c0-3.6-2.6-6.6-6-7.3V8.5C17.5,7.7,16.8,7,16,7h0c-0.8,0-1.5,0.7-1.5,1.5v0.7c-3.4,0.6-6,3.7-6,7.3
			v5.2L6,24.1V26h20v-1.9l-2.4-2.3V16.5z"/>
		<path class="st0" d="M22.3,1.8l-0.6,2c4.6,2.3,7.9,6.9,8.3,12.3H32C31.6,9.7,27.7,4.3,22.3,1.8z"/>
		<path class="st0" d="M10.4,3.7l-0.6-2C4.3,4.3,0.4,9.7,0,16h2.1C2.5,10.6,5.7,6,10.4,3.7z"/>
		<path class="st0" d="M21,5.7l-0.6,2c3,1.7,5.2,4.7,5.7,8.3h2.1C27.6,11.5,24.9,7.7,21,5.7z"/>
		<path class="st0" d="M11.6,7.7l-0.6-2c-3.9,2-6.6,5.8-7.1,10.4H6C6.4,12.5,8.6,9.4,11.6,7.7z"/>
		<path class="st0" d="M16,30.2c1.7,0,3.1-1.4,3.1-3.1h-6.1C12.9,28.9,14.3,30.2,16,30.2z"/>
	</g>
</g>
</svg>
